<svg width="1600" height="900" viewBox="0 0 1600 900" fill="none" xmlns="http://www.w3.org/2000/svg">
  <defs>
    <linearGradient id="titleGrad" x1="80" y1="36" x2="760" y2="126" gradientUnits="userSpaceOnUse">
      <stop stop-color="#E2E8F0"/>
      <stop offset="0.5" stop-color="#93C5FD"/>
      <stop offset="1" stop-color="#A7F3D0"/>
    </linearGradient>
    <marker id="arrow" markerWidth="12" markerHeight="12" refX="10" refY="6" orient="auto">
      <path d="M0 0L12 6L0 12V0Z" fill="#7DD3FC"/>
    </marker>
    <marker id="arrowGreen" markerWidth="12" markerHeight="12" refX="10" refY="6" orient="auto">
      <path d="M0 0L12 6L0 12V0Z" fill="#34D399"/>
    </marker>
  </defs>

  <rect width="1600" height="900" fill="#0B1220"/>
  <text x="80" y="88" fill="url(#titleGrad)" font-family="Segoe UI, Arial, sans-serif" font-size="50" font-weight="700">CouncilKit Workflow</text>
  <text x="80" y="130" fill="#93C5FD" font-family="Segoe UI, Arial, sans-serif" font-size="26">Host -> CouncilKit Core -> Workers -> Unified Answer</text>

  <rect x="80" y="250" width="260" height="130" rx="16" fill="#111827" stroke="#334155" stroke-width="2"/>
  <text x="170" y="324" fill="#E5E7EB" font-family="Segoe UI, Arial, sans-serif" font-size="34" font-weight="700">Host</text>

  <rect x="410" y="190" width="460" height="250" rx="18" fill="#0F172A" stroke="#38BDF8" stroke-width="2"/>
  <text x="552" y="250" fill="#E0F2FE" font-family="Segoe UI, Arial, sans-serif" font-size="38" font-weight="700">CouncilKit Core</text>
  <rect x="448" y="286" width="126" height="60" rx="12" fill="#111827" stroke="#334155"/>
  <text x="470" y="324" fill="#93C5FD" font-family="Segoe UI, Arial, sans-serif" font-size="24" font-weight="600">Discovery</text>
  <rect x="578" y="286" width="126" height="60" rx="12" fill="#111827" stroke="#334155"/>
  <text x="613" y="324" fill="#93C5FD" font-family="Segoe UI, Arial, sans-serif" font-size="24" font-weight="600">Routing</text>
  <rect x="708" y="286" width="126" height="60" rx="12" fill="#111827" stroke="#334155"/>
  <text x="731" y="324" fill="#93C5FD" font-family="Segoe UI, Arial, sans-serif" font-size="24" font-weight="600">Synthesis</text>

  <rect x="940" y="150" width="420" height="420" rx="18" fill="#111827" stroke="#334155" stroke-width="2"/>
  <text x="1086" y="210" fill="#E5E7EB" font-family="Segoe UI, Arial, sans-serif" font-size="34" font-weight="700">Workers</text>

  <rect x="980" y="240" width="340" height="88" rx="12" fill="#0F172A" stroke="#475569"/>
  <text x="1065" y="295" fill="#E5E7EB" font-family="Segoe UI, Arial, sans-serif" font-size="30">Research Worker</text>
  <rect x="980" y="350" width="340" height="88" rx="12" fill="#0F172A" stroke="#475569"/>
  <text x="1080" y="405" fill="#E5E7EB" font-family="Segoe UI, Arial, sans-serif" font-size="30">Coding Worker</text>
  <rect x="980" y="460" width="340" height="88" rx="12" fill="#0F172A" stroke="#475569"/>
  <text x="1096" y="515" fill="#E5E7EB" font-family="Segoe UI, Arial, sans-serif" font-size="30">Local Worker</text>

  <rect x="1380" y="265" width="170" height="190" rx="14" fill="#0F172A" stroke="#34D399" stroke-width="2"/>
  <text x="1402" y="335" fill="#D1FAE5" font-family="Segoe UI, Arial, sans-serif" font-size="30" font-weight="700">Unified</text>
  <text x="1407" y="372" fill="#D1FAE5" font-family="Segoe UI, Arial, sans-serif" font-size="30" font-weight="700">Answer</text>
  <text x="1408" y="412" fill="#86EFAC" font-family="Segoe UI, Arial, sans-serif" font-size="20">Disagreements</text>
  <text x="1420" y="438" fill="#86EFAC" font-family="Segoe UI, Arial, sans-serif" font-size="20">Next Checks</text>

  <path d="M352 314H396" stroke="#7DD3FC" stroke-width="5" stroke-linecap="round" marker-end="url(#arrow)"/>
  <path d="M882 314H928" stroke="#7DD3FC" stroke-width="5" stroke-linecap="round" marker-end="url(#arrow)"/>
  <path d="M1328 282H1368" stroke="#34D399" stroke-width="4" stroke-linecap="round" marker-end="url(#arrowGreen)"/>
  <path d="M1328 392H1368" stroke="#34D399" stroke-width="4" stroke-linecap="round" marker-end="url(#arrowGreen)"/>
  <path d="M1328 502H1368" stroke="#34D399" stroke-width="4" stroke-linecap="round" marker-end="url(#arrowGreen)"/>

  <rect x="80" y="640" width="1470" height="180" rx="16" fill="#111827" stroke="#374151"/>
  <text x="118" y="700" fill="#E5E7EB" font-family="Consolas, Menlo, monospace" font-size="27">Input: task + mode + optional worker hints</text>
  <text x="118" y="742" fill="#93C5FD" font-family="Consolas, Menlo, monospace" font-size="27">Output: results + synthesis_inputs + disagreements + recommended_next_checks</text>
  <text x="118" y="784" fill="#34D399" font-family="Consolas, Menlo, monospace" font-size="27">Bring your own host. Bring your own workers.</text>
</svg>
